<svg xmlns="http://www.w3.org/2000/svg" aria-hidden="true" style="position:absolute;width:0;height:0;overflow:hidden">
  <defs>
    <symbol id="icon-Vector" viewBox="0 0 32 32">
      <path d="M26.667 0H5.334a2.663 2.663 0 0 0-2.653 2.667l-.013 16c0 1.467 1.2 2.667 2.667 2.667h21.333c1.467 0 2.667-1.2 2.667-2.667v-16C29.335 1.2 28.135 0 26.668 0zm-.534 5.667-9.427 5.893a1.346 1.346 0 0 1-1.413 0L5.866 5.667a1.132 1.132 0 1 1 1.2-1.92l8.933 5.587 8.933-5.587a1.132 1.132 0 1 1 1.2 1.92z"/>
      <path fill="none" stroke="#000" stroke-width="1.778" d="M3.569 2.667v-.001c0-.982.794-1.778 1.764-1.778h21.333c.976 0 1.778.802 1.778 1.778v16c0 .976-.802 1.778-1.778 1.778H5.333a1.785 1.785 0 0 1-1.778-1.777l.013-15.999zM26.605 6.42l.008-.005a2.03 2.03 0 0 0 .943-1.709c0-1.603-1.747-2.54-3.087-1.718l-.006.004-8.462 5.292-8.468-5.296c-1.34-.823-3.087.115-3.087 1.718 0 .698.362 1.337.943 1.709l9.435 5.898a2.237 2.237 0 0 0 2.356 0l9.427-5.893z" style="stroke:var(--color1, #000)"/>
    </symbol>
    <symbol id="icon-Vector-1" viewBox="0 0 32 32">
      <path d="m28.865 21.822-4.525-.517a3.543 3.543 0 0 0-2.921 1.015l-3.278 3.278A26.8 26.8 0 0 1 6.402 13.859l3.296-3.296a3.545 3.545 0 0 0 1.015-2.921l-.517-4.489A3.566 3.566 0 0 0 6.651 0H3.569C1.556 0-.118 1.675.006 3.687.95 18.9 13.117 31.049 28.312 31.993c2.013.125 3.687-1.55 3.687-3.563v-3.082c.018-1.799-1.336-3.313-3.135-3.527z"/>
    </symbol>
  </defs>
</svg>
